<?xml version="1.0" encoding="UTF-8" standalone="no"?>
<!-- Created with Inkscape (http://www.inkscape.org/) -->

<svg
   width="105"
   height="100"
   viewBox="0 0 27.781231 26.458336"
   version="1.1"
   id="svg1282"
   inkscape:version="1.1.2 (b8e25be833, 2022-02-05)"
   sodipodi:docname="windmill.svg"
   xmlns:inkscape="http://www.inkscape.org/namespaces/inkscape"
   xmlns:sodipodi="http://sodipodi.sourceforge.net/DTD/sodipodi-0.dtd"
   xmlns="http://www.w3.org/2000/svg"
   xmlns:svg="http://www.w3.org/2000/svg">
  <sodipodi:namedview
     id="namedview1284"
     pagecolor="#505050"
     bordercolor="#eeeeee"
     borderopacity="1"
     inkscape:pageshadow="0"
     inkscape:pageopacity="0"
     inkscape:pagecheckerboard="0"
     inkscape:document-units="px"
     showgrid="false"
     units="px"
     inkscape:zoom="1.5910634"
     inkscape:cx="240.40525"
     inkscape:cy="155.87059"
     inkscape:window-width="1920"
     inkscape:window-height="1017"
     inkscape:window-x="1912"
     inkscape:window-y="-8"
     inkscape:window-maximized="1"
     inkscape:current-layer="layer1" />
  <defs
     id="defs1279" />
  <g
     inkscape:label="Layer 1"
     inkscape:groupmode="layer"
     id="layer1">
    <path
       id="circle86"
       style="fill:#ff4935;fill-opacity:1;stroke:#8e69ca;stroke-width:0"
       d="m 13.942797,1.2946454 a 12.456052,12.456052 0 0 0 -2.297534,0.218591 c 0.158155,0.267046 0.438331,0.72585 0.472322,0.765844 0.005,0.007 0.06982,-0.02863 0.142627,-0.07803 0.15839,-0.107619 0.205822,-0.111741 0.253732,-0.02222 0.0312,0.0582 0.01441,0.0826 -0.120923,0.1757 -0.0865,0.0595 -0.150714,0.119152 -0.143144,0.132291 0.14173,0.245899 0.52213,0.843971 0.54622,0.858862 0.0178,0.011 0.07334,-0.01218 0.123507,-0.05168 0.11422,-0.0899 0.173261,-0.0908 0.220141,-0.0031 0.0314,0.0587 0.01903,0.0803 -0.08527,0.147794 -0.067,0.0434 -0.121726,0.09578 -0.121956,0.116273 -3.2e-4,0.0281 0.517002,0.880878 0.574642,0.94723 0.006,0.007 0.04632,-0.01281 0.08992,-0.04341 0.103411,-0.0724 0.123102,-0.07 0.170532,0.01861 0.0337,0.063 0.02631,0.08449 -0.04909,0.147278 l -0.08837,0.0739 0.27957,0.434084 c 0.15373,0.238749 0.286829,0.441428 0.295589,0.450617 0.009,0.009 0.06154,-0.0099 0.117306,-0.04134 0.0977,-0.0561 0.103112,-0.05531 0.154512,0.01809 0.0498,0.071 0.04739,0.08008 -0.03411,0.139528 -0.0481,0.035 -0.08733,0.07788 -0.08733,0.09508 0,0.0172 0.121175,0.218114 0.269235,0.446484 l 0.269234,0.415478 0.08682,-0.06666 c 0.11083,-0.0851 0.127424,-0.08465 0.176734,0.0078 0.0354,0.0661 0.02819,0.08602 -0.05581,0.152961 l -0.09664,0.077 0.08217,0.133842 c 0.045,0.0735 0.18091,0.286416 0.30179,0.473355 l 0.219625,0.340032 0.09922,-0.0708 c 0.12561,-0.0894 0.163667,-0.08931 0.212907,0.0026 0.0413,0.0772 0.03564,0.08569 -0.118339,0.173633 -0.0451,0.0258 -0.05791,0.05997 -0.04341,0.117824 0.026,0.103648 -0.04505,0.151945 -0.104386,0.07079 -0.0417,-0.057 -0.0526,-0.05471 -0.168465,0.03359 -0.13524,0.103159 -0.143669,0.12142 -0.0832,0.181901 0.0309,0.0309 0.02613,0.0466 -0.02067,0.0646 -0.0353,0.0135 -0.07287,0.0047 -0.08837,-0.02015 -0.034,-0.055 -0.14571,-0.02139 -0.22686,0.06821 -0.05,0.0553 -0.05349,0.07776 -0.01809,0.120406 0.0355,0.0428 0.03315,0.05631 -0.01395,0.07441 -0.0341,0.0131 -0.07504,-6.77e-4 -0.09974,-0.03411 -0.0379,-0.0512 -0.05032,-0.0492 -0.137976,0.0217 -0.0895,0.0723 -0.09306,0.08335 -0.04496,0.151413 0.0313,0.0443 0.10736,0.08262 0.19172,0.09612 0.0769,0.0123 0.33923,0.0941 0.58291,0.181901 0.3577,0.12896 0.555454,0.229674 1.024744,0.522964 l 0.58136,0.363287 0.236678,0.3420976 0.237195,0.342098 0.670243,-0.464571 c 0.3687,-0.2554016 0.679634,-0.4734446 0.690914,-0.4847246 0.0113,-0.0113 -0.01821,-0.09072 -0.06511,-0.176733 -0.0701,-0.128482 -0.0988,-0.153091 -0.16123,-0.137459 -0.0418,0.0105 -0.08458,0.0052 -0.09509,-0.01189 -0.0106,-0.0171 0.820446,-0.593966 1.846916,-1.281576 0.878406,-0.588417 2.143553,-1.46614 3.11764,-2.155938 a 12.456052,12.456052 0 0 0 -9.642823,-4.571815 12.456052,12.456052 0 0 0 -0.02584,0 z m -2.430859,0.244946 a 12.456052,12.456052 0 0 0 -0.305408,0.06511 c 0.02524,0.04954 0.04706,0.09595 0.104903,0.186037 0.0829,0.129119 0.224186,0.348911 0.313676,0.488341 l 0.162781,0.253214 0.111621,-0.077 c 0.0616,-0.0425 0.116596,-0.08012 0.121956,-0.08372 0.0093,-0.0058 -0.349604,-0.586994 -0.509529,-0.83199 z m -0.446485,0.09818 a 12.456052,12.456052 0 0 0 -0.167948,0.04186 c -0.04341,0.04059 -0.07869,0.0832 -0.07235,0.09974 0.0349,0.091 0.613894,0.95808 0.639754,0.95808 0.0153,0 0.0665,-0.02608 0.113688,-0.05788 0.0472,-0.0319 0.0916,-0.06271 0.0987,-0.06821 0.01492,-0.01149 -0.512483,-0.846326 -0.611849,-0.973585 z m -0.37362,0.198956 c -0.0191,-4.5e-4 -0.07255,0.02859 -0.119373,0.0646 l -0.08527,0.06563 0.135392,0.220144 c 0.42608,0.6931 0.502924,0.795983 0.567924,0.761193 0.0346,-0.0185 0.08263,-0.05752 0.10697,-0.08682 0.0373,-0.045 -0.0037,-0.129318 -0.263033,-0.538467 -0.16916,-0.26689 -0.323514,-0.485825 -0.342614,-0.486275 z m -1.1358478,0.266134 a 12.456052,12.456052 0 0 0 -8.043437,11.6478656 12.456052,12.456052 0 0 0 7.822261,11.561569 l 0.389124,-2.294435 c 0.3073198,-1.81174 0.5510538,-3.382595 0.7260538,-4.683435 0.14483,-1.076528 0.257451,-1.963083 0.25063,-1.969904 -0.0207,-0.0207 -0.489361,0.307475 -2.2308708,1.559594 -1.11648,0.80274 -1.678445,1.186677 -1.701705,1.163238 -0.0232,-0.0234 -0.009,-0.05245 0.04341,-0.08785 0.10491,-0.0712 0.09804,-0.104445 -0.02636,-0.131773 -0.0878,-0.0193 -0.103869,-0.03902 -0.103869,-0.127641 0,-0.127881 -0.0089,-0.124986 -0.344682,0.106453 -0.14187,0.0978 -0.282622,0.17749 -0.312643,0.177249 -0.044,-3.49e-4 -0.210839,-0.20235 -0.210839,-0.25528 0,-0.008 0.08559,-0.07285 0.190686,-0.145211 0.20098,-0.13843 0.217347,-0.169254 0.142627,-0.267685 -0.0574,-0.0756 -0.08512,-0.0762 -0.166399,-0.0031 -0.0511,0.0463 -0.07315,0.0497 -0.10697,0.0155 -0.0337,-0.034 -0.03191,-0.04942 0.0088,-0.07441 0.16953,-0.102762 0.170177,-0.118666 0.01654,-0.325046 -0.0463,-0.0621 -0.05311,-0.06274 -0.137459,-0.0072 -0.132061,0.0865 -0.19041,0.02734 -0.06873,-0.06976 0.10605,-0.0846 0.101566,-0.119158 -0.03927,-0.308507 -0.0493,-0.0663 -0.05593,-0.06685 -0.153479,-0.01085 -0.13855,0.0795 -0.177393,0.0091 -0.05064,-0.09147 l 0.09663,-0.077 -0.165365,-0.256315 -0.165881,-0.255796 0.07751,-0.06253 c 0.0424,-0.0343 0.08815,-0.06253 0.101803,-0.06253 0.0136,0 0.09862,0.117102 0.189136,0.259932 l 0.164848,0.259416 0.415478,-0.278535 c 0.27459,-0.183959 0.407334,-0.292685 0.390674,-0.320394 -0.0139,-0.0231 -0.0793,-0.126858 -0.145211,-0.230476 l -0.119889,-0.188103 0.07855,-0.06356 c 0.043,-0.0348 0.08809,-0.06314 0.100252,-0.06304 0.0122,1.72e-4 0.08231,0.0938 0.156063,0.208257 0.0737,0.11444 0.148838,0.208256 0.166398,0.208256 0.0231,0 0.798189,-0.499166 0.891419,-0.574125 0.006,-0.005 -0.0472,-0.09935 -0.117822,-0.209807 l -0.128675,-0.200503 0.07803,-0.06356 c 0.043,-0.0348 0.08879,-0.06356 0.101803,-0.06356 0.013,0 0.07583,0.0861 0.139527,0.191204 0.0637,0.10505 0.123478,0.191201 0.132808,0.191201 0.009,0 0.193911,-0.119666 0.410311,-0.265615 l 0.393257,-0.265102 -0.117305,-0.183452 -0.117306,-0.183451 0.08372,-0.05478 c 0.0459,-0.0301 0.09563,-0.05434 0.110588,-0.05374 0.015,6.01e-4 0.07502,0.0798 0.133325,0.175699 l 0.105937,0.174149 0.380338,-0.265099 c 0.509,-0.35483 0.483661,-0.322694 0.376721,-0.480073 -0.0859,-0.126482 -0.08704,-0.133972 -0.02584,-0.180351 0.0986,-0.0747 0.162846,-0.05966 0.227376,0.05374 0.0325,0.0572 0.07909,0.103381 0.10387,0.10232 0.0248,-10e-4 0.1226708,-0.06106 0.2170408,-0.132808 l 0.171566,-0.130225 -0.0093,-0.202573 c -0.005,-0.111318 0.0041,-0.21163 0.02067,-0.22324 0.0165,-0.0116 0.08729,-0.375144 0.157096,-0.807704 0.12089,-0.74922 0.137731,-0.814993 0.359151,-1.389062 0.2145,-0.556141 0.259674,-0.641604 0.583944,-1.104326 l 0.3514,-0.5012606 0.607714,-0.369485 c 0.46654,-0.283702 0.698092,-0.401384 0.997872,-0.505913 0.21477,-0.0749 0.390574,-0.147362 0.390674,-0.161232 5.6e-4,-0.0749 -2.519169,-4.121544 -3.540869,-5.686475 C 9.8772842,2.6047934 9.7777992,2.4466124 9.5560022,2.1029104 Z m 2.5688348,0.460952 c -0.018,0 -0.07736,0.03148 -0.131775,0.07028 l -0.09922,0.0708 0.284738,0.448551 c 0.15656,0.246801 0.29224,0.448829 0.30179,0.449067 0.01,2.4e-4 0.06298,-0.03635 0.118339,-0.08165 l 0.100769,-0.08268 -0.271301,-0.437182 c -0.14899,-0.24053 -0.285301,-0.437184 -0.303341,-0.437184 z m -0.322461,0.213942 c -0.0236,-0.0253 -0.22558,0.150124 -0.21239,0.184483 0.0312,0.0814 0.547318,0.851789 0.570508,0.851628 0.0137,-9.8e-5 0.06694,-0.03523 0.118339,-0.07803 l 0.09353,-0.07803 -0.279569,-0.434083 c -0.15374,-0.23875 -0.284392,-0.439508 -0.290422,-0.445966 z m -0.341064,0.238744 c -0.0162,-7.81e-4 -0.07406,0.03045 -0.128675,0.06925 l -0.09922,0.0708 0.284737,0.450101 c 0.15651,0.24764 0.292587,0.450202 0.302307,0.450101 0.01,-10e-5 0.06363,-0.03665 0.119889,-0.08165 v -5.16e-4 l 0.10232,-0.08165 -0.275953,-0.437181 c -0.15176,-0.240602 -0.289257,-0.43846 -0.305407,-0.439251 z m 1.336869,0.633553 c -0.03119,0.0018 -0.08648,0.03053 -0.173633,0.08888 -0.037,0.0247 0.01849,0.134858 0.254765,0.504878 0.16611,0.260202 0.315383,0.472839 0.331763,0.472839 0.0164,0 0.06849,-0.03513 0.116272,-0.07803 l 0.08682,-0.07803 -0.284737,-0.440282 c -0.15677,-0.242202 -0.295572,-0.450612 -0.307992,-0.463021 -0.0052,-0.0052 -0.01286,-0.0078 -0.02325,-0.0072 z m -0.31781,0.199988 c -0.01,-6.91e-4 -0.06204,0.03475 -0.116789,0.07855 l -0.09973,0.07958 0.269751,0.43253 c 0.14821,0.237802 0.284284,0.451773 0.302824,0.475424 0.0495,0.0632 0.24666,-0.08179 0.217041,-0.159681 -0.0304,-0.0799 -0.551972,-0.904875 -0.573092,-0.906404 z m -0.336414,0.242879 c -0.0228,-5.9e-4 -0.08195,0.034 -0.131258,0.077 l -0.08992,0.07803 0.30024,0.476972 0.30024,0.476975 0.109038,-0.07493 c 0.0599,-0.0413 0.114576,-0.07967 0.121956,-0.08526 0.0267,-0.0203 -0.569909,-0.947729 -0.610299,-0.94878 z m 1.377694,0.654225 -0.10387,0.0739 c -0.0572,0.0407 -0.103869,0.08315 -0.103869,0.09405 0,0.011 0.08911,0.162443 0.19792,0.336415 0.1088,0.173969 0.23378,0.374864 0.27802,0.446484 0.0442,0.0716 0.0924,0.129807 0.106453,0.129707 0.0141,-1.01e-4 0.07059,-0.0361 0.125574,-0.0801 l 0.09973,-0.0801 -0.299723,-0.45992 z m -0.329179,0.248563 c -0.0191,-2.81e-4 -0.07696,0.0342 -0.128674,0.077 l -0.09405,0.07803 0.284737,0.459919 c 0.15674,0.25291 0.293274,0.459852 0.302824,0.45992 0.01,6.9e-5 0.06374,-0.03677 0.120406,-0.08217 l 0.102836,-0.08268 -0.169499,-0.273368 c -0.0933,-0.15031 -0.218095,-0.354854 -0.276986,-0.454752 -0.0589,-0.0999 -0.122493,-0.181621 -0.141593,-0.181901 z m -1.350305,0.01602 c -0.06242,0.01585 -0.160197,0.08187 -0.160197,0.121955 0,0.0472 0.463733,0.798242 0.492993,0.798401 0.0133,7.1e-5 0.06415,-0.03503 0.113171,-0.07803 l 0.08888,-0.07803 -0.230477,-0.364837 c -0.12667,-0.200548 -0.243119,-0.378679 -0.258899,-0.39584 -0.008,-0.0087 -0.02467,-0.0089 -0.04547,-0.0036 z m 1.015959,0.225825 c -0.0494,0 -0.204122,0.108048 -0.204122,0.142629 0,0.0167 0.06781,0.13598 0.150378,0.265099 0.0825,0.129119 0.207483,0.324779 0.277502,0.434599 0.07,0.109818 0.140854,0.19947 0.157614,0.19947 0.0168,0 0.07034,-0.03126 0.119372,-0.06976 l 0.0894,-0.07028 -0.278535,-0.45062 c -0.15333,-0.247919 -0.293659,-0.451135 -0.311609,-0.451135 z m 1.363224,0.625284 c -0.0119,1.11e-4 -0.06747,0.03685 -0.123507,0.08165 l -0.101802,0.08165 0.257865,0.420646 c 0.14198,0.231412 0.271171,0.421587 0.287321,0.422198 0.0161,6.08e-4 0.07469,-0.02611 0.130225,-0.05891 0.0555,-0.0328 0.101285,-0.07345 0.101285,-0.09095 0,-0.0429 -0.523917,-0.856488 -0.551387,-0.856279 z m -1.727543,0.160716 c -0.0204,0.0025 -0.04756,0.01504 -0.08682,0.03824 -0.0551,0.0326 -0.100252,0.07292 -0.100252,0.08992 0,0.017 0.10286,0.201414 0.22841,0.409795 l 0.22841,0.378788 0.110071,-0.07597 c 0.0607,-0.0419 0.115676,-0.07973 0.121956,-0.08423 0.0108,-0.008 -0.381676,-0.64266 -0.454236,-0.734838 -0.01325,-0.01685 -0.02714,-0.02417 -0.04754,-0.0217 z m 1.393196,0.09405 c -0.0191,-0.006 -0.07826,0.02376 -0.131258,0.06666 l -0.09612,0.07803 0.263033,0.425297 c 0.14482,0.233971 0.271853,0.425296 0.282153,0.425296 0.0103,0 0.0639,-0.02663 0.119373,-0.05943 0.0555,-0.0328 0.100319,-0.0758 0.09922,-0.0956 -0.003,-0.0544 -0.496552,-0.827519 -0.536402,-0.840261 z m -0.345715,0.23668 c -0.02963,-0.0018 -0.06523,0.01846 -0.119889,0.06046 l -0.08372,0.0646 0.08165,0.134359 c 0.270161,0.444521 0.454593,0.70745 0.496093,0.70745 0.0261,0 0.07579,-0.03083 0.110071,-0.06873 0.0655,-0.0724 0.05288,-0.09829 -0.401526,-0.825272 -0.02945,-0.04715 -0.05306,-0.07108 -0.08268,-0.07286 z m 10.577128,0.176215 c -0.0488,0.02804 -0.18404,0.116398 -0.3638,0.241329 l -0.364835,0.253731 0.07338,0.130225 c 0.0404,0.0718 0.08535,0.130741 0.09973,0.130741 0.0144,0 0.18334,-0.110765 0.37568,-0.246496 0.18136,-0.127979 0.32212,-0.236186 0.34934,-0.2651 a 12.456052,12.456052 0 0 0 -0.1695,-0.24443 z m 0.23462,0.341064 c -0.13688,0.07798 -0.72365,0.501513 -0.72451,0.528135 -0.002,0.0595 0.15681,0.261429 0.18965,0.241329 0.0195,-0.0119 0.18735,-0.128595 0.37311,-0.259416 0.17096,-0.120391 0.29811,-0.21772 0.32969,-0.249081 a 12.456052,12.456052 0 0 0 -0.16794,-0.260967 z m -1.987996,0.03307 c -0.0505,-3.68e-4 -0.716754,0.461698 -0.716754,0.497128 0,0.0732 0.14696,0.266333 0.185518,0.243914 0.0222,-0.0129 0.185065,-0.123671 0.361736,-0.24598 0.17667,-0.122301 0.32091,-0.235535 0.32091,-0.251664 0,-0.0506 -0.119642,-0.243168 -0.15141,-0.243398 z m -7.457944,0.01447 c -0.0316,-0.0195 -0.238745,0.121812 -0.238745,0.162782 0,0.0319 0.562543,0.933792 0.582393,0.933792 0.008,0 0.06376,-0.03385 0.124024,-0.07545 0.0602,-0.0416 0.115443,-0.08007 0.122473,-0.08527 0.0162,-0.0121 -0.551105,-0.91173 -0.590145,-0.93586 z m -1.772502,0.05426 -0.11007,0.07596 c -0.0604,0.0417 -0.11516,0.07973 -0.12144,0.08423 -0.0153,0.011 0.423281,0.740579 0.445451,0.74104 0.01,2.09e-4 0.06715,-0.04205 0.127641,-0.09405 l 0.11007,-0.09457 -0.225825,-0.35605 z m 1.399915,0.175699 c -0.0123,6.8e-4 -0.06787,0.0381 -0.12299,0.0832 l -0.100252,0.08216 0.287837,0.472323 c 0.15831,0.259789 0.294821,0.472321 0.303341,0.472321 0.009,0 0.06083,-0.03233 0.116272,-0.07183 0.0555,-0.0395 0.101286,-0.08621 0.101286,-0.10387 0,-0.045 -0.558254,-0.935839 -0.585494,-0.93431 z m 8.626347,0.04496 c -0.0386,0.0148 -0.728745,0.488704 -0.794785,0.545703 -0.0426,0.0367 0.124722,0.278969 0.178801,0.2589 0.0251,-0.009 0.208875,-0.127838 0.408244,-0.263549 0.199361,-0.135702 0.37102,-0.261474 0.381889,-0.279053 0.0294,-0.0476 -0.12549,-0.28067 -0.174149,-0.262001 z m 1.42575,0.04496 c -0.0517,0.02669 -0.19283,0.116906 -0.3731,0.241845 -0.3634,0.25183 -0.37884,0.26711 -0.33331,0.338479 0.0262,0.0411 0.0593,0.09447 0.0734,0.11834 0.0141,0.0239 0.0419,0.04341 0.0615,0.04341 0.0197,0 0.20593,-0.117858 0.41393,-0.261998 l 0.31471,-0.218075 a 12.456052,12.456052 0 0 0 -0.1571,-0.261998 z m -10.405564,0.164846 c -0.01975,0.002 -0.04456,0.01548 -0.0832,0.04083 -0.0557,0.0365 -0.08508,0.08028 -0.07338,0.110588 0.0225,0.0586 0.55218,0.909904 0.56689,0.911055 0.005,4.29e-4 0.0485,-0.0245 0.0956,-0.0553 0.0471,-0.0309 0.08578,-0.07143 0.08578,-0.09043 0,-0.0382 -0.471292,-0.81557 -0.539502,-0.889868 -0.01795,-0.01955 -0.03245,-0.02887 -0.05219,-0.02687 z m 7.2378,0.125574 c -0.0173,0 -0.637749,0.409418 -0.685229,0.45217 -0.0415,0.0374 0.150519,0.315875 0.198438,0.287837 0.0215,-0.0126 0.176011,-0.116977 0.343133,-0.232029 0.167129,-0.115059 0.303855,-0.223538 0.303855,-0.241329 0,-0.0382 -0.137165,-0.266649 -0.160197,-0.266649 z m 1.998845,0.0036 -0.40721,0.278022 c -0.22384,0.15271 -0.412308,0.292158 -0.418578,0.310057 -0.0147,0.042 0.127084,0.241845 0.171566,0.241845 0.01859,0 0.213185,-0.126389 0.432014,-0.280601 0.248433,-0.175117 0.389767,-0.295555 0.375177,-0.32091 -0.0129,-0.0223 -0.0528,-0.08286 -0.08837,-0.134361 z m 1.378729,0.06046 c -0.14667,0.07808 -0.71592,0.478335 -0.71624,0.509013 -2e-4,0.0194 0.0406,0.09595 0.091,0.170016 l 0.0915,0.134358 -0.0827,0.06408 c -0.0455,0.035 -0.0929,0.06368 -0.10542,0.06408 -0.0125,4.2e-4 -0.0646,-0.07041 -0.11575,-0.157613 l -0.093,-0.158131 -0.0925,0.05943 c -0.051,0.0329 -0.24585,0.167893 -0.432532,0.299725 l -0.338998,0.239778 0.07028,0.0987 c 0.0911,0.127942 0.08854,0.153156 -0.02015,0.211357 -0.0958,0.0513 -0.09979,0.04918 -0.205156,-0.121439 -0.0298,-0.0483 -0.0909,-0.01636 -0.434083,0.226859 -0.219649,0.15566 -0.405,0.287848 -0.411861,0.29404 -0.007,0.006 0.02358,0.06124 0.06718,0.122473 l 0.07907,0.111619 -0.07907,0.06408 c -0.10691,0.0866 -0.13036,0.08181 -0.19327,-0.03979 -0.0296,-0.0573 -0.06333,-0.104386 -0.07493,-0.104386 -0.0163,0 -0.662215,0.4462456 -0.740524,0.5115956 -0.009,0.008 0.01658,0.07294 0.05788,0.144695 l 0.07545,0.130741 -0.102319,0.05994 -0.101804,0.06046 -0.06046,-0.10749 c -0.0362,-0.0643 -0.08227,-0.10202 -0.114205,-0.09405 -0.0589,0.0147 -0.797368,0.538777 -0.797368,0.565857 0,0.009 0.03953,0.07473 0.08733,0.145211 l 0.08682,0.128156 -0.07855,0.05994 c -0.10762,0.0828 -0.122645,0.07879 -0.202055,-0.05581 -0.0382,-0.0648 -0.100376,-0.126079 -0.137976,-0.135911 -0.0421,-0.011 -0.06099,-0.03721 -0.04909,-0.06821 0.0243,-0.0633 -0.108964,-0.293216 -0.197404,-0.340547 -0.0366,-0.0196 -0.05739,-0.05074 -0.04599,-0.06925 0.0278,-0.045 -0.111801,-0.266864 -0.196371,-0.312124 -0.037,-0.0198 -0.05854,-0.05103 -0.04754,-0.06873 0.0186,-0.0301 -0.0041,-0.08582 -0.08268,-0.203088 -0.0253,-0.0378 -0.165037,0.04345 -0.652157,0.378788 -0.34107,0.23477 -0.633343,0.438486 -0.649573,0.452686 -0.0162,0.0142 0.09765,0.358568 0.253215,0.765328 0.27517,0.71972 0.28618,0.759675 0.40411,1.486215 0.0666,0.41062 0.113193,0.767593 0.103353,0.793231 -0.01,0.0256 0.005,0.05525 0.03359,0.06615 0.0283,0.0109 0.05116,0.05574 0.05116,0.09974 0,0.122179 2.370015,3.965363 3.746026,6.074563 0.513095,0.786485 0.868391,1.346311 1.044379,1.635559 a 12.456052,12.456052 0 0 0 2.937803,-8.034652 12.456052,12.456052 0 0 0 -1.62832,-6.1572456 z m -1.16169,0.301273 -0.342094,0.235127 c -0.188132,0.129382 -0.376666,0.262224 -0.419098,0.295074 l -0.077,0.05943 0.07183,0.113171 c 0.0395,0.0621 0.08282,0.112654 0.09612,0.112654 0.0133,0 0.203438,-0.126016 0.422195,-0.280085 0.218757,-0.15407 0.401507,-0.290799 0.406177,-0.303858 0.005,-0.0131 -0.0291,-0.07044 -0.0749,-0.127641 z m -1.494479,0.01705 c -0.044,0 -0.804085,0.534421 -0.804087,0.56534 0,0.0359 0.135091,0.233061 0.159681,0.233061 0.009,0 0.183372,-0.113184 0.387572,-0.251664 0.2042,-0.13847 0.384056,-0.260974 0.399976,-0.272335 0.0296,-0.0211 -0.102534,-0.274402 -0.143142,-0.274402 z m -8.41034,0.02222 c -0.0281,-0.0305 -0.242363,0.108416 -0.242363,0.157096 0,0.0462 0.397628,0.686874 0.426848,0.687814 0.0151,4.79e-4 0.07369,-0.03313 0.130224,-0.07493 0.0565,-0.0418 0.102837,-0.08848 0.102837,-0.103355 0,-0.0267 -0.365116,-0.609605 -0.417546,-0.666625 z m 6.768062,0.220657 c -0.0179,0 -0.173221,0.09449 -0.344682,0.209807 -0.29182,0.19622 -0.308864,0.214328 -0.270784,0.286287 0.0633,0.119711 0.14017,0.233061 0.15813,0.233061 0.009,0 0.155798,-0.09615 0.326078,-0.21394 0.17028,-0.1178 0.309542,-0.226528 0.309542,-0.241329 0,-0.0503 -0.145504,-0.273886 -0.178284,-0.273886 z m 1.854667,0.132292 c -0.0576,0.01216 -0.171588,0.08072 -0.398426,0.236162 -0.216029,0.148029 -0.398605,0.273809 -0.406175,0.279569 -0.008,0.006 0.02818,0.07428 0.07958,0.151929 l 0.09353,0.141076 0.389125,-0.267685 c 0.21404,-0.147018 0.395208,-0.271989 0.402558,-0.278018 0.0222,-0.0182 -0.06979,-0.216684 -0.119372,-0.257866 -0.0089,-0.0074 -0.02163,-0.0092 -0.04083,-0.0052 z m -1.245918,0.338481 c -0.0084,-0.0018 -0.01642,-0.001 -0.02325,0.0031 -0.140192,0.0844 -0.686934,0.473911 -0.703834,0.501261 -0.0186,0.0301 0.107041,0.240295 0.143661,0.240295 0.009,0 0.179832,-0.112453 0.379822,-0.250114 0.199988,-0.13767 0.363355,-0.258884 0.363284,-0.269234 -6.9e-5,-0.0104 -0.03188,-0.07031 -0.07028,-0.133324 -0.03345,-0.0549 -0.0643,-0.08648 -0.0894,-0.09199 z m 1.489832,0.02584 c -0.0381,-0.0151 -0.755044,0.450977 -0.796335,0.517798 -0.0174,0.0281 0.115977,0.270785 0.148828,0.270782 0.009,0 0.194659,-0.127476 0.412377,-0.283186 l 0.395843,-0.283186 -0.05943,-0.102836 c -0.0328,-0.0565 -0.07832,-0.110233 -0.101285,-0.119372 z m -2.978113,0.09405 c -0.0367,0 -0.509272,0.307528 -0.587562,0.382408 -0.0443,0.0424 0.145484,0.354396 0.197404,0.324527 0.0228,-0.0131 0.166561,-0.110191 0.319361,-0.21549 0.1528,-0.105301 0.282671,-0.195032 0.288871,-0.199472 0.025,-0.0179 -0.179715,-0.291973 -0.218074,-0.291973 z m 1.693952,0.223245 c -0.0344,0.0132 -0.452532,0.290121 -0.719852,0.476972 -0.0194,0.0135 0.006,0.08302 0.06046,0.165365 l 0.09405,0.14211 0.320395,-0.213423 c 0.17626,-0.11747 0.347726,-0.237453 0.380854,-0.266134 0.0569,-0.0493 0.0563,-0.05948 -0.0155,-0.187068 -0.0438,-0.0779 -0.09477,-0.127664 -0.120407,-0.117822 z m -1.161685,0.332277 c -0.0272,0 -0.699393,0.441444 -0.823723,0.541054 -0.0201,0.0161 0.111651,0.2227236 0.14211,0.2227236 0.0156,0 0.19632,-0.1113286 0.40101,-0.2475276 0.20468,-0.13621 0.385059,-0.259485 0.401009,-0.273886 0.0358,-0.0323 -0.06853,-0.242364 -0.120406,-0.242364 z m 1.410767,0.03462 c -0.0325,-2.09e-4 -0.65831,0.418653 -0.725022,0.485244 -0.0343,0.0343 0.103436,0.2785336 0.157096,0.2785336 0.0188,0 0.189527,-0.1098676 0.379307,-0.2444296 0.189788,-0.134559 0.345197,-0.258217 0.345197,-0.274918 0,-0.0551 -0.121169,-0.244207 -0.156578,-0.24443 z m -1.193726,0.301276 c -0.05126,0.0054 -0.162531,0.07146 -0.417546,0.23926 -0.23026,0.1516116 -0.419242,0.2877186 -0.419613,0.3023076 -9.4e-4,0.0377 0.151517,0.267681 0.177767,0.2682 0.012,2.51e-4 0.199332,-0.119782 0.416512,-0.266134 0.217191,-0.146359 0.399997,-0.2697316 0.406177,-0.2744016 0.0113,-0.008 -0.06576,-0.161718 -0.128674,-0.255796 -0.0068,-0.01013 -0.01754,-0.01522 -0.03462,-0.01344 z m 0.22996,0.358632 c -0.0457,-4.68e-4 -0.824239,0.5301636 -0.824239,0.5617236 0,0.0166 0.04107,0.09229 0.09147,0.168465 l 0.09147,0.138494 0.108004,-0.08062 c 0.0594,-0.0444 0.21771,-0.156707 0.3514,-0.249597 0.392671,-0.272799 0.374584,-0.247134 0.285252,-0.403593 -0.0422,-0.074 -0.08888,-0.1347366 -0.103351,-0.1348766 z M 10.44947,14.197184 c -0.009,0 -0.119146,0.07337 -0.243396,0.162782 -0.2096898,0.15085 -0.2223738,0.167344 -0.179834,0.234093 0.0252,0.0395 0.05775,0.09247 0.07235,0.117306 0.0326,0.0551 0.02883,0.05668 0.292489,-0.114721 0.22515,-0.14637 0.258864,-0.191204 0.144694,-0.191204 -0.054,0 -0.06925,-0.02288 -0.06925,-0.10387 0,-0.0573 -0.008,-0.104386 -0.01705,-0.104386 z m 8.021216,0.173633 c -0.13069,0 -0.131993,0.0012 -0.100252,0.08423 0.0255,0.0663 0.07959,0.06832 0.16123,0.0067 v -5.16e-4 c 0.0898,-0.0682 0.07462,-0.09043 -0.06098,-0.09043 z m -7.571631,0.03462 c -0.0719,0 -0.675928,0.408747 -0.675928,0.457338 0,0.0211 0.03233,0.09054 0.07183,0.154511 l 0.07183,0.116274 0.26665,-0.1788 c 0.14667,-0.0984 0.278459,-0.195884 0.292489,-0.216525 0.014,-0.0206 0.02564,-0.103822 0.02584,-0.185002 4e-4,-0.109899 -0.01291,-0.147796 -0.05271,-0.147796 z m 7.885824,0.174152 c -0.0198,9.8e-5 -0.08101,0.03568 -0.135909,0.07958 l -0.09974,0.0801 0.219625,0.351917 0.220141,0.351399 0.10077,-0.05839 c 0.0555,-0.0322 0.108522,-0.07729 0.117822,-0.100769 0.0204,-0.0514 -0.371583,-0.704083 -0.422713,-0.703831 z m -9.0263228,0.11472 c -0.10283,0.0395 -0.801653,0.554818 -0.793233,0.584978 0.0124,0.0445 0.116028,0.20257 0.132809,0.20257 0.007,0 0.149953,-0.0959 0.317293,-0.213423 0.16734,-0.117488 0.355592,-0.251516 0.418062,-0.297656 l 0.113171,-0.08371 -0.0739,-0.103871 c -0.0408,-0.0572 -0.09198,-0.09739 -0.114205,-0.08888 z m 8.3493608,0.197403 c -0.0722,0 0.03213,0.271577 0.236162,0.615469 0.12716,0.214328 0.233458,0.390123 0.236678,0.390673 0.003,5.5e-4 0.03078,-0.0081 0.06098,-0.02015 0.0302,-0.0116 0.05478,-0.03714 0.05478,-0.05685 0,-0.0485 -0.557875,-0.929143 -0.588595,-0.929143 z m -7.235217,0.03462 c -0.037,0 -0.441317,0.274574 -0.441317,0.299725 0,0.0107 0.03265,0.06526 0.07235,0.120922 0.0759,0.10667 0.08353,0.105791 0.263033,-0.02894 0.0889,-0.0667 0.111967,-0.111027 0.121957,-0.236677 0.007,-0.0851 -5e-4,-0.15503 -0.01602,-0.15503 z m -0.9002028,0.09043 c -0.0346,0.003 -0.716389,0.462608 -0.819589,0.552937 -0.0175,0.0153 0.147003,0.258937 0.175183,0.259416 0.0138,2.51e-4 0.201669,-0.119533 0.417029,-0.266134 0.21536,-0.1466 0.3989438,-0.273052 0.4082438,-0.280601 0.0322,-0.0261 -0.133427,-0.269237 -0.1808668,-0.265618 z m -1.228349,0.363286 -0.389124,0.259932 c -0.21391,0.142931 -0.389123,0.273638 -0.389123,0.290939 0,0.0726 0.124938,0.244536 0.166398,0.228925 0.0247,-0.009 0.200484,-0.128275 0.390674,-0.264064 v 5.15e-4 c 0.19019,-0.135789 0.345835,-0.26525 0.345715,-0.287321 -1.4e-4,-0.0221 -0.02833,-0.08244 -0.06253,-0.134358 z m 1.4639928,0.0155 c -0.064,0 -0.8179878,0.506757 -0.8180378,0.549839 -2e-5,0.0162 0.03223,0.0751 0.07183,0.130741 l 0.07183,0.101285 0.33693,-0.234611 c 0.1853198,-0.12909 0.3753658,-0.262596 0.4221968,-0.296106 0.0824,-0.059 0.08339,-0.06369 0.02739,-0.156062 -0.0318,-0.0524 -0.08225,-0.09509 -0.112138,-0.09509 z m 7.962305,0.06925 0.02119,0.225825 c 0.0118,0.12415 0.03034,0.276965 0.04134,0.339516 l 0.02015,0.113688 0.108521,-0.06873 c 0.0595,-0.0377 0.111701,-0.08134 0.116272,-0.09663 0.005,-0.0153 -0.06289,-0.137086 -0.149862,-0.270785 z m 1.185974,0.01757 c -0.01,2.9e-5 -0.06409,0.03771 -0.12144,0.08371 l -0.104386,0.08372 0.0677,0.115755 c 0.149,0.25563 0.371475,0.58446 0.395325,0.58446 0.0139,0 0.06392,-0.02608 0.111104,-0.05788 0.0472,-0.0319 0.09192,-0.06241 0.09922,-0.06821 0.0165,-0.0129 -0.423348,-0.741667 -0.447518,-0.741556 z M 8.9493032,15.725245 c -0.0303,0 -0.774759,0.530437 -0.774629,0.551905 2.8e-4,0.0453 0.139442,0.246496 0.170532,0.246496 0.0182,0 0.190592,-0.110765 0.382922,-0.246496 0.19234,-0.135739 0.357263,-0.259845 0.366903,-0.275434 0.0174,-0.0281 -0.113488,-0.276471 -0.145728,-0.276471 z m 1.8164268,0.07958 c -0.0219,-0.0219 -0.550604,0.34327 -0.566374,0.391189 -0.0115,0.0349 0.114121,0.258382 0.145211,0.258382 0.0101,0 0.102425,-0.05582 0.205155,-0.124024 h 5.17e-4 c 0.17965,-0.11929 0.187313,-0.131074 0.210323,-0.315224 0.0132,-0.105302 0.01577,-0.200115 0.0052,-0.210323 z m 8.038269,0.216522 c -0.01501,4.5e-4 -0.02856,0.01091 -0.04703,0.02481 -0.0525,0.0395 -0.03226,0.08527 0.206706,0.46922 0.25267,0.4059 0.336032,0.488257 0.379822,0.374139 0.0112,-0.0293 -0.08136,-0.212494 -0.215491,-0.425815 -0.22335,-0.355327 -0.278995,-0.443695 -0.324011,-0.442351 z m -11.0804608,0.0584 c -0.0923,0.0359 -0.867724,0.57222 -0.868164,0.60048 -7.2e-4,0.0464 0.130947,0.260448 0.160197,0.260448 0.0127,0 0.204254,-0.127299 0.425814,-0.282668 0.22156,-0.155361 0.416825,-0.29492 0.433565,-0.31006 0.0339,-0.0307 -0.109422,-0.284541 -0.151412,-0.2682 z m 1.446424,0.0186 c -0.0158,7.59e-4 -0.197887,0.121647 -0.404627,0.268719 l -0.375688,0.267165 0.05736,0.100769 c 0.0315,0.0554 0.07428,0.101167 0.09508,0.101286 0.0208,10e-5 0.200569,-0.111416 0.399459,-0.248047 0.19889,-0.136628 0.367077,-0.253177 0.374137,-0.258898 0.0212,-0.0172 -0.114677,-0.232494 -0.145727,-0.230994 z m 9.4273308,0.08837 c -0.07147,0.0049 -0.247496,0.135321 -0.221692,0.177253 0.40694,0.661199 0.512026,0.819737 0.543636,0.819586 0.0209,-9.8e-5 0.08075,-0.03523 0.132809,-0.07803 l 0.09457,-0.07803 -0.251147,-0.405143 c -0.13802,-0.22284 -0.261599,-0.41611 -0.274919,-0.429432 -0.005,-0.005 -0.01304,-0.0069 -0.02325,-0.0062 z m 1.34307,0.230479 -0.109553,0.07028 c -0.0602,0.0388 -0.10641,0.08462 -0.10232,0.101803 0.004,0.0172 0.112552,0.197334 0.240812,0.399976 0.21877,0.34562 0.237691,0.365533 0.303341,0.321942 0.0385,-0.0256 0.08398,-0.06923 0.101286,-0.09663 0.0224,-0.0355 -0.03513,-0.157007 -0.201021,-0.423746 z m -11.9594758,0.03514 c -0.0241,-0.0202 -0.187367,0.07396 -0.458887,0.264584 -0.23178,0.162689 -0.428169,0.306784 -0.436149,0.320394 -0.0275,0.047 0.152234,0.288899 0.195854,0.263549 0.0232,-0.0135 0.225908,-0.155789 0.450618,-0.316259 l 0.408244,-0.291973 -0.06098,-0.104386 c -0.0337,-0.0574 -0.0781,-0.118658 -0.0987,-0.135909 z m 10.3476888,0.107487 c -0.0036,-6.32e-4 -0.0059,0.0013 -0.0067,0.0057 -0.0287,0.14904 0.06074,0.55667 0.155029,0.705898 0.054,0.0855 0.106205,0.154646 0.115755,0.153998 0.01,-6.59e-4 0.05977,-0.03613 0.111621,-0.07855 l 0.09509,-0.07751 -0.233061,-0.38137 C 18.44402,16.688014 18.353756,16.564266 18.328599,16.559842 Z M 6.6279982,16.80787 6.2476592,17.065736 c -0.20906,0.141819 -0.39364,0.271168 -0.41031,0.287837 -0.044,0.044 0.141096,0.32494 0.193786,0.29404 0.0232,-0.0136 0.19864,-0.133946 0.38964,-0.267685 0.191001,-0.133731 0.358251,-0.252666 0.372071,-0.264067 0.0138,-0.0114 -0.01746,-0.08525 -0.06976,-0.16433 z m 1.544092,0.01447 c -0.0412,0.003 -0.74137,0.476848 -0.84491,0.572058 -0.0356,0.0327 0.0652,0.206188 0.119889,0.20619 0.0194,0 0.218114,-0.127508 0.441834,-0.283189 0.22373,-0.15567 0.41419,-0.289388 0.42323,-0.297137 0.032,-0.0274 -0.09102,-0.201261 -0.140043,-0.197922 z m 11.2944008,0.247531 c -0.0155,0.004 -0.03349,0.01314 -0.05064,0.02584 -0.058,0.0429 -0.04238,0.07884 0.224792,0.515731 0.15798,0.258339 0.303408,0.460576 0.322978,0.449585 0.0196,-0.011 0.05378,-0.03418 0.07648,-0.05168 0.0301,-0.0232 -0.03469,-0.152352 -0.237195,-0.472323 -0.15326,-0.242121 -0.28906,-0.451014 -0.30179,-0.464056 -0.0064,-0.0065 -0.01912,-0.0071 -0.03462,-0.0031 z M 6.8698442,17.190275 c -0.007,-0.01 -0.72462,0.489011 -0.79065,0.549323 -0.0159,0.0146 0.01203,0.09204 0.06253,0.172082 l 0.09198,0.145209 0.110587,-0.0832 c 0.061,-0.0459 0.239812,-0.173823 0.397392,-0.283702 0.15758,-0.109881 0.286804,-0.215273 0.286804,-0.234611 0,-0.029 -0.03424,-0.08637 -0.158646,-0.265102 z m 12.3961418,0.03411 c -0.009,-0.0138 -0.111677,0.04362 -0.196887,0.110588 -0.0573,0.045 -0.04169,0.08013 0.220658,0.504362 0.15503,0.250669 0.299884,0.454867 0.321944,0.454237 0.0221,-6.4e-4 0.07688,-0.03175 0.121957,-0.06925 0.0525,-0.0438 0.07414,-0.08869 0.05994,-0.125574 -0.0159,-0.0415 -0.439897,-0.744034 -0.527617,-0.874366 z m 1.281059,0.202571 c -0.0358,0 -0.218236,0.120353 -0.209807,0.138493 0.0234,0.0502 0.496188,0.797991 0.50488,0.798402 0.005,2.8e-4 0.0485,-0.02501 0.0956,-0.05581 v 5.19e-4 c 0.0471,-0.0308 0.08578,-0.07207 0.08578,-0.09147 0,-0.0408 -0.451875,-0.790133 -0.476455,-0.790133 z m -1.648995,0.03462 c -0.0133,-1.69e-4 -0.0632,0.03513 -0.111104,0.07803 l -0.08682,0.07803 0.292489,0.442867 c 0.16077,0.243528 0.30443,0.442262 0.31936,0.441833 0.0149,-4.21e-4 0.06116,-0.02746 0.102836,-0.06046 l 0.07597,-0.05994 -0.284221,-0.459919 c -0.15631,-0.25291 -0.295248,-0.460267 -0.308508,-0.460439 z m -11.8220168,0.11834 c -0.0725,0.0278 -0.776697,0.545068 -0.776697,0.570508 0,0.0604 0.112592,0.178059 0.149862,0.15658 0.0226,-0.013 0.209361,-0.139133 0.414961,-0.280603 l 0.373621,-0.25735 -0.06046,-0.102317 c -0.0333,-0.0563 -0.07889,-0.09542 -0.101285,-0.08682 z m 11.5166088,0.09095 c -0.01,-1.8e-4 -0.04353,0.01899 -0.07493,0.04289 -0.0525,0.04 -0.04321,0.146347 0.112655,1.327568 0.0931,0.70607 0.383085,2.568798 0.644405,4.139798 0.110061,0.661644 0.19986,1.215522 0.278536,1.703255 a 12.456052,12.456052 0 0 0 2.008147,-1.259353 c -0.04461,-0.03645 -0.09016,-0.133008 -0.06046,-0.152447 0.43642,-0.285779 0.496094,-0.332386 0.480074,-0.374137 -0.01,-0.0259 -0.136922,-0.241932 -0.282152,-0.480073 l -0.264068,-0.433049 -0.232026,0.156062 -0.23151,0.156064 -0.0615,-0.07493 c -0.0598,-0.073 -0.05841,-0.07648 0.05219,-0.158645 0.0624,-0.0464 0.164264,-0.115863 0.226343,-0.154514 0.0621,-0.0387 0.112654,-0.08588 0.112654,-0.104386 0,-0.0325 -0.464343,-0.808577 -0.567922,-0.949296 -0.0495,-0.0672 -0.05512,-0.0661 -0.244947,0.0646 -0.16042,0.110479 -0.20299,0.126629 -0.24598,0.09095 -0.087,-0.0722 -0.06041,-0.121578 0.13901,-0.2589 0.105049,-0.0724 0.190686,-0.139478 0.190686,-0.148828 0,-0.0169 -0.276816,-0.483423 -0.452686,-0.762743 l -0.09198,-0.145728 -0.181384,0.122473 c -0.14546,0.098 -0.190984,0.113835 -0.230994,0.08062 -0.084,-0.0697 -0.05716,-0.123941 0.12299,-0.24598 0.0951,-0.0644 0.165893,-0.136004 0.157613,-0.159163 -0.0228,-0.0639 -0.441519,-0.729067 -0.523999,-0.832509 l -0.07235,-0.09095 -0.135909,0.09199 c -0.16538,0.112379 -0.168091,0.112778 -0.215491,0.0083 -0.0346,-0.076 -0.02611,-0.09192 0.09819,-0.174149 0.0752,-0.0498 0.136942,-0.100565 0.136942,-0.112654 0,-0.0317 -0.569405,-0.911741 -0.590145,-0.91209 z m 1.569413,0.510564 c -0.01287,8.12e-4 -0.02581,0.0075 -0.04186,0.01757 -0.0398,0.0248 -0.06164,0.06567 -0.05064,0.09457 0.0502,0.130828 0.557228,0.904335 0.592728,0.904335 0.0221,0 0.05928,-0.02296 0.08268,-0.05116 0.0444,-0.0534 0.03776,-0.06583 -0.404627,-0.756541 -0.10359,-0.161729 -0.139686,-0.211215 -0.178284,-0.208772 z m -0.248046,0.170531 c -0.03328,0.0052 -0.07921,0.03498 -0.155547,0.09199 -0.0647,0.0483 -0.06212,0.05734 0.07338,0.271817 0.32721,0.518048 0.467003,0.72518 0.489893,0.725019 0.0134,-1.09e-4 0.06875,-0.03566 0.122989,-0.07907 l 0.0987,-0.07906 -0.25063,-0.398426 c -0.13772,-0.219141 -0.272237,-0.433673 -0.299207,-0.476975 -0.0256,-0.0411 -0.0463,-0.06049 -0.07958,-0.05529 z m -0.319361,0.222208 c -0.0122,-9.1e-4 -0.05787,0.02796 -0.101802,0.06356 l -0.0801,0.0646 0.210323,0.326078 c 0.11556,0.179271 0.252218,0.393239 0.303858,0.47594 0.0889,0.142359 0.09756,0.148032 0.169498,0.100251 0.0418,-0.0277 0.07648,-0.07058 0.07648,-0.09508 h -5.17e-4 c 0,-0.0514 -0.544443,-0.932863 -0.577743,-0.935345 z m 1.285194,0.742074 c -0.0177,0.0031 -0.03841,0.01201 -0.05891,0.02636 -0.0669,0.0469 -0.05926,0.06362 0.214458,0.489375 0.15589,0.24243 0.292153,0.441363 0.302824,0.441833 0.0107,4.61e-4 0.04595,-0.01899 0.07855,-0.04289 0.0539,-0.0394 0.03508,-0.08137 -0.202571,-0.458886 -0.14392,-0.228581 -0.275338,-0.429852 -0.292489,-0.447002 -0.0092,-0.0092 -0.02416,-0.01185 -0.04186,-0.0088 z m -0.240296,0.159163 c -0.0161,0 -0.07113,0.03641 -0.122473,0.08062 l -0.09302,0.0801 0.0863,0.136943 c 0.51228,0.810461 0.473842,0.774174 0.664043,0.632003 0.0608,-0.0454 0.04878,-0.07324 -0.220142,-0.488858 -0.156781,-0.24231 -0.29864,-0.440801 -0.31471,-0.440801 z m -0.316777,0.253214 c -0.03314,-0.01306 -0.06819,0.0045 -0.12454,0.04393 l -0.07648,0.05323 0.196887,0.319878 c 0.413419,0.67246 0.359683,0.616797 0.494543,0.513146 l 0.08527,-0.06511 -0.186036,-0.289907 c -0.102069,-0.159408 -0.225825,-0.356002 -0.275435,-0.437181 -0.04965,-0.08123 -0.08107,-0.124918 -0.114205,-0.137978 z m 1.254703,0.650092 c -0.011,0 -0.04516,0.01951 -0.07597,0.04341 -0.0497,0.0385 -0.01998,0.09916 0.262517,0.537435 0.306001,0.4748 0.384334,0.556019 0.427366,0.443899 0.0183,-0.0477 -0.567066,-1.024742 -0.613918,-1.024742 z m -0.230992,0.17363 c -0.0637,0 -0.220324,0.130273 -0.208775,0.173636 0.0213,0.08 0.609812,0.972428 0.640273,0.970999 0.0147,-6.8e-4 0.07131,-0.03725 0.125574,-0.08165 v -5.16e-4 l 0.09818,-0.08062 -0.318844,-0.490926 c -0.17554,-0.2701 -0.326982,-0.490927 -0.336412,-0.490927 z m -0.375171,0.243914 c -0.03982,-0.0079 -0.07238,0.02636 -0.120407,0.08423 -0.0383,0.0461 7.65e-4,0.129535 0.259416,0.556556 0.321839,0.53135 0.308811,0.520259 0.48369,0.389639 0.064,-0.0478 0.053,-0.07122 -0.257347,-0.556038 -0.212063,-0.331205 -0.298992,-0.461256 -0.365352,-0.47439 z m 1.336868,0.781865 c -0.0068,-5.5e-5 -0.01317,0.002 -0.02015,0.0047 -0.0325,0.0125 -0.04824,0.04655 -0.03824,0.08475 0.01936,0.07407 0.467858,0.771883 0.552421,0.865063 a 12.456052,12.456052 0 0 0 0.0832,-0.08423 c -0.01809,-0.04806 -0.0561,-0.117819 -0.122989,-0.224793 -0.345651,-0.5514 -0.4069,-0.645051 -0.454236,-0.645438 z m -0.197919,0.15503 c -0.0422,0 -0.218594,0.122547 -0.218594,0.151927 0,0.0181 0.127379,0.233021 0.283189,0.477491 l 0.283186,0.444417 0.102836,-0.05943 c 0.0564,-0.0327 0.110143,-0.07858 0.119372,-0.101803 0.0153,-0.0384 -0.530751,-0.912604 -0.569989,-0.912604 z m -0.328147,0.257347 c -0.0339,-0.021 -0.237712,0.09104 -0.237712,0.130741 0,0.0214 0.275058,0.483762 0.508497,0.854213 0.0491,0.078 0.05171,0.07837 0.156581,0.01757 0.0586,-0.034 0.114196,-0.08148 0.123505,-0.104902 0.0158,-0.0399 -0.486069,-0.85758 -0.550871,-0.89762 z" />
  </g>
</svg>
